<svg xmlns="http://www.w3.org/2000/svg" width="620" height="340" viewBox="0 0 620 340" fill="none"><defs><linearGradient id="wsmg" x1="8%" y1="0%" x2="92%" y2="100%"><stop offset="0%" stop-color="#00D4FF" stop-opacity="1"/><stop offset="52%" stop-color="#3B82F6" stop-opacity="1"/><stop offset="100%" stop-color="#8B5CF6" stop-opacity="1"/></linearGradient><linearGradient id="wsnodeg" x1="0%" y1="0%" x2="100%" y2="100%"><stop offset="0%" stop-color="#73E7FF" stop-opacity="1"/><stop offset="100%" stop-color="#3B82F6" stop-opacity="1"/></linearGradient><radialGradient id="wsgl"><stop offset="0%" stop-color="#00D4FF" stop-opacity="0.26"/><stop offset="45%" stop-color="#00D4FF" stop-opacity="0.099"/><stop offset="72%" stop-color="#00D4FF" stop-opacity="0.029"/><stop offset="100%" stop-color="#00D4FF" stop-opacity="0.0"/></radialGradient></defs><ellipse cx="310.0" cy="110" rx="230" ry="200" fill="url(#wsgl)"/><g transform="translate(235.0,32) scale(1.5)"><g stroke="url(#wsmg)" stroke-width="11.5" stroke-linecap="round" stroke-linejoin="round"><path d="M20,82 V22"/><path d="M20,22 L80,82"/><path d="M80,82 V22"/></g><circle cx="50" cy="52" r="15.5" fill="url(#wsnodeg)"/><circle cx="50" cy="52" r="6.4" fill="#0A0A0F"/></g><g transform="translate(192.7,262)" fill="#FFFFFF"><path d="M661 0V729H511V233L222 729H68V0H218V504L511 0Z" transform="translate(0.000,0) scale(0.064000,-0.064000)"/><path d="M624 0V125H229V314H578V439H229V604H606V729H79V0Z" transform="translate(49.728,0) scale(0.064000,-0.064000)"/><path d="M653 0 419 372 644 729H470L336 489L208 729H30L252 367L22 0H196L335 253L475 0Z" transform="translate(95.936,0) scale(0.064000,-0.064000)"/><path d="M654 246V729H504V246C504 158 459 116 365 116C271 116 226 158 226 246V729H76V246C76 74 198 -12 365 -12C532 -12 654 74 654 246Z" transform="translate(142.144,0) scale(0.064000,-0.064000)"/><path d="M633 219C633 334 575 388 440 414L326 436C219 457 188 478 188 531C188 586 237 621 314 621C409 621 467 581 467 507H607C607 661 499 741 321 741C146 741 45 659 45 517C45 403 102 350 250 321L352 301C452 281 489 260 489 201C489 140 433 108 342 108C240 108 178 151 178 229H32C32 73 148 -12 334 -12C522 -12 633 71 633 219Z" transform="translate(191.872,0) scale(0.064000,-0.064000)"/></g><g transform="translate(230.5,300)" fill="#9AA3B2"><path d="M579 647V729H90V0H183V332H531V414H183V647Z" transform="translate(0.000,0) scale(0.023000,-0.023000)"/><path d="M193 0V729H100V0Z" transform="translate(23.713,0) scale(0.023000,-0.023000)"/><path d="M646 0V729H558V133L177 729H76V0H164V591L541 0Z" transform="translate(39.767,0) scale(0.023000,-0.023000)"/><path d="M653 0 397 729H277L17 0H116L193 219H474L549 0ZM448 297H216L336 629Z" transform="translate(66.033,0) scale(0.023000,-0.023000)"/><path d="M646 0V729H558V133L177 729H76V0H164V591L541 0Z" transform="translate(91.034,0) scale(0.023000,-0.023000)"/><path d="M677 266H581C559 128 501 64 378 64C233 64 141 175 141 357C141 544 229 665 370 665C484 665 544 614 567 503H662C633 663 541 747 381 747C160 747 48 569 48 356C48 143 163 -18 377 -18C555 -18 655 76 677 266Z" transform="translate(117.300,0) scale(0.023000,-0.023000)"/><path d="M613 0V82H183V332H580V414H183V647H595V729H90V0Z" transform="translate(143.566,0) scale(0.023000,-0.023000)"/></g></svg>